# xmcd
#
# Track frame offsets:
#	150
#	15526
#	31785
#	46983
#	60880
#	76330
#	92204
#	108649
#	126779
#	144494
#	163244
#
# Disc length: 2398 seconds
#
# Revision: 1
# Processed by: cddbd v1.4PL0 Copyright (c) Steve Scherf et al.
# Submitted via: audiograbber 1.80
#
DISCID=86095c0b
DTITLE=Alabama - The Very Best of ... 
DYEAR=1900
DGENRE=
TTITLE0=Can't keep a good man down
TTITLE1=Close enought to perfect
TTITLE2=Down home
TTITLE3=Face to face
TTITLE4=Feels so right
TTITLE5=Forever's as far as i'll go
TTITLE6=Jukebox in my mind
TTITLE7=Lady down on love
TTITLE8=Mountain music
TTITLE9=Roll on (eighteen wheeler)
TTITLE10=Take me down
EXTD=
EXTT0=
EXTT1=
EXTT2=
EXTT3=
EXTT4=
EXTT5=
EXTT6=
EXTT7=
EXTT8=
EXTT9=
EXTT10=
PLAYORDER=
